#N canvas 100 100 600 500 10;
#X text 50 10 GOLEM 24HP Percussion Faceplate;
#X text 50 25 ---- Transport ----;
#X obj 50 45 bng 25 250 50 0 empty empty PLAY 0 -8 0 10 -262144 -1 -1;
#X obj 110 45 bng 25 250 50 0 empty empty STOP 0 -8 0 10 -262144 -1 -1;
#X obj 170 45 tgl 25 0 empty empty REC 0 -8 0 10 -262144 -1 -1 0;
#X obj 230 45 nbx 5 18 30 300 1 0 empty empty BPM 0 -8 0 10 -262144 -1 -1 120 256;
#X text 50 80 ---- Track Select ----;
#X obj 50 100 hradio 25 1 0 8 empty empty TrackSel 0 -8 0 10 -262144 -1 -1 0;
#X text 50 135 ---- Mute Groups ----;
#X obj 50 155 tgl 20 0 empty empty A 0 -8 0 10 -262144 -1 -1 0;
#X obj 90 155 tgl 20 0 empty empty B 0 -8 0 10 -262144 -1 -1 0;
#X obj 130 155 tgl 20 0 empty empty C 0 -8 0 10 -262144 -1 -1 0;
#X obj 170 155 tgl 20 0 empty empty D 0 -8 0 10 -262144 -1 -1 0;
#X text 50 185 ---- XY Pad ----;
#X obj 50 205 hsl 128 18 0 1 0 0 empty empty X 0 -8 0 10 -262144 -1 -1 6400 1;
#X obj 50 235 hsl 128 18 0 1 0 0 empty empty Y 0 -8 0 10 -262144 -1 -1 6400 1;
#X text 50 265 ---- Macro Knobs (sel trk) ----;
#X obj 50 285 nbx 5 18 0 20000 1 0 empty empty Freq 0 -8 0 10 -262144 -1 -1 150 256;
#X obj 140 285 nbx 5 18 0 20000 1 0 empty empty Cutoff 0 -8 0 10 -262144 -1 -1 2000 256;
#X obj 230 285 nbx 5 18 0 20 1 0 empty empty Res 0 -8 0 10 -262144 -1 -1 1 256;
#X obj 320 285 nbx 5 18 0 1 0.01 0 empty empty EnvAmt 0 -8 0 10 -262144 -1 -1 0.5 256;
#X text 50 315 ---- Drum Pads ----;
#X obj 50 335 bng 30 250 50 0 empty empty Pad1 0 -8 0 10 -262144 -1 -1;
#X obj 100 335 bng 30 250 50 0 empty empty Pad2 0 -8 0 10 -262144 -1 -1;
#X obj 150 335 bng 30 250 50 0 empty empty Pad3 0 -8 0 10 -262144 -1 -1;
#X obj 200 335 bng 30 250 50 0 empty empty Pad4 0 -8 0 10 -262144 -1 -1;
#X obj 50 385 bng 30 250 50 0 empty empty Pad5 0 -8 0 10 -262144 -1 -1;
#X obj 100 385 bng 30 250 50 0 empty empty Pad6 0 -8 0 10 -262144 -1 -1;
#X obj 150 385 bng 30 250 50 0 empty empty Pad7 0 -8 0 10 -262144 -1 -1;
#X obj 200 385 bng 30 250 50 0 empty empty Pad8 0 -8 0 10 -262144 -1 -1;
#X text 50 425 ---- OSC Send ----;
#X obj 50 445 s to_sc;
#X obj 200 445 r $0-trk;
#X obj 50 465 list prepend /golem;
#N struct dummy float x;
#X msg 50 45 /golem/transport/play;
#X connect 2 0 34 0;
#X obj 110 65 msg /golem/transport/stop;
#X connect 3 0 36 0;
#X connect 36 0 33 0;
#X connect 34 0 33 0;
#X obj 230 65 f;
#X connect 5 0 38 0;
#X obj 230 85 msg /golem/transport/tempo \$1;
#X connect 38 0 39 0;
#X connect 39 0 33 0;
#X obj 50 120 f;
#X connect 7 0 40 0;
#X obj 50 445 s $0-trk;
#X connect 40 0 41 0;
#X obj 50 175 msg /golem/mutegroup/toggle A;
#X connect 9 0 42 0;
#X connect 42 0 31 0;
#X obj 90 175 msg /golem/mutegroup/toggle B;
#X connect 10 0 43 0;
#X connect 43 0 31 0;
#X obj 130 175 msg /golem/mutegroup/toggle C;
#X connect 11 0 44 0;
#X connect 44 0 31 0;
#X obj 170 175 msg /golem/mutegroup/toggle D;
#X connect 12 0 45 0;
#X connect 45 0 31 0;
#X obj 300 205 pack f f;
#X connect 14 0 46 0;
#X connect 15 0 46 1;
#X obj 300 225 msg /golem/xy/update \$1 \$2;
#X connect 46 0 47 0;
#X connect 47 0 31 0;
#X obj 50 355 msg /golem/pad/trigger 0 0.8;
#X connect 22 0 48 0;
#X connect 48 0 31 0;
#X obj 100 355 msg /golem/pad/trigger 1 0.8;
#X connect 23 0 49 0;
#X connect 49 0 31 0;
#X obj 150 355 msg /golem/pad/trigger 2 0.8;
#X connect 24 0 50 0;
#X connect 50 0 31 0;
#X obj 200 355 msg /golem/pad/trigger 3 0.8;
#X connect 25 0 51 0;
#X connect 51 0 31 0;
#X obj 50 405 msg /golem/pad/trigger 4 0.8;
#X connect 26 0 52 0;
#X connect 52 0 31 0;
#X obj 100 405 msg /golem/pad/trigger 5 0.8;
#X connect 27 0 53 0;
#X connect 53 0 31 0;
#X obj 150 405 msg /golem/pad/trigger 6 0.8;
#X connect 28 0 54 0;
#X connect 54 0 31 0;
#X obj 200 405 msg /golem/pad/trigger 7 0.8;
#X connect 29 0 55 0;
#X connect 55 0 31 0;
